<svg xmlns="http://www.w3.org/2000/svg" viewBox="0 0 128 128">
  <defs>
    <linearGradient id="bg" x1="12" y1="12" x2="116" y2="116" gradientUnits="userSpaceOnUse">
      <stop offset="0" stop-color="#F59E0B"/>
      <stop offset="1" stop-color="#C2410C"/>
    </linearGradient>
  </defs>
  <rect width="128" height="128" rx="28" fill="#120915"/>
  <rect x="12" y="12" width="104" height="104" rx="24" fill="url(#bg)"/>
  <path d="M40 34h48c7.732 0 14 6.268 14 14v40c0 7.732-6.268 14-14 14H54c-11.046 0-20-8.954-20-20V40c0-3.314 2.686-6 6-6Z" fill="#1C0F07" fill-opacity=".18"/>
  <path d="M43 34h39c7.18 0 13 5.82 13 13v38c0 7.18-5.82 13-13 13H58c-11.598 0-21-9.402-21-21V40c0-3.314 2.686-6 6-6Z" fill="#FFF5E6"/>
  <path d="M54 46h24" stroke="#D97706" stroke-width="7" stroke-linecap="round"/>
  <path d="M54 62h24" stroke="#EA580C" stroke-width="7" stroke-linecap="round"/>
  <path d="M54 78h17" stroke="#FB923C" stroke-width="7" stroke-linecap="round"/>
  <circle cx="84" cy="84" r="14" fill="#7C2D12"/>
  <path d="M84 75c-4.5 0-8 3.5-8 8.5S79.5 92 84 92s8-3.5 8-8.5S88.5 75 84 75Zm0 0c.8-4.6 4.7-7 8.5-7" stroke="#FDE68A" stroke-width="4" stroke-linecap="round" stroke-linejoin="round" fill="none"/>
</svg>

