<?xml version="1.0" encoding="UTF-8"?>
<svg xmlns="http://www.w3.org/2000/svg" xmlns:xlink="http://www.w3.org/1999/xlink" width="600px" height="451px" viewBox="0 0 599 451" version="1.1">
<g id="surface1">
<path style=" stroke:none;fill-rule:nonzero;fill:rgb(100%,100%,100%);fill-opacity:1;" d="M 401.277344 422.109375 C 396.984375 426.859375 391.417969 427.125 295.65625 427.125 C 220.542969 427.125 193.722656 426.300781 191.363281 423.941406 C 189.613281 422.1875 188.179688 416.21875 188.179688 410.675781 C 188.179688 402.714844 187.175781 400.59375 183.410156 400.59375 C 177.84375 400.59375 153.726562 385.898438 153.726562 382.5 C 153.726562 381.226562 156.109375 378.042969 159.027344 375.390625 C 161.941406 372.738281 164.328125 369.765625 164.328125 368.757812 C 164.328125 366.582031 157.355469 358.808594 149.035156 351.753906 C 143.125 346.710938 143.019531 346.710938 136.285156 353.027344 L 129.527344 359.394531 L 124.464844 352.816406 C 119.03125 345.730469 110.125 320.5 107.5 304.796875 C 105.9375 295.378906 105.648438 295.191406 91.464844 293.707031 C 64.140625 290.894531 17.464844 258.265625 10.496094 237.09375 C 6.175781 223.988281 13.277344 213.933594 27.695312 212.710938 C 36.65625 211.96875 39.171875 213.375 53.9375 227.570312 C 72.515625 245.449219 83.675781 252.03125 95.285156 252.03125 L 103.367188 252.03125 L 103.367188 233.085938 C 103.367188 218.441406 102.359375 213.402344 98.941406 210.910156 C 94.886719 207.9375 95.070312 207.300781 100.929688 203.535156 C 108.21875 198.890625 135.648438 193.082031 180.230469 186.792969 C 227.25 180.160156 336.738281 178.78125 387.335938 184.195312 C 429.105469 188.652344 475.886719 196.636719 488.53125 201.4375 C 496.375 204.4375 497.804688 208.917969 491.65625 211.28125 C 485.933594 213.480469 485.933594 248.871094 491.683594 251.074219 C 501.992188 255.054688 514.6875 248.871094 534.039062 230.488281 C 552.722656 212.710938 554.074219 211.945312 564.996094 212.738281 C 574.484375 213.429688 577.027344 214.808594 579.941406 220.9375 C 585.457031 232.476562 580.050781 244.015625 560.648438 262.191406 C 540.957031 280.601562 518.425781 292.246094 499.238281 293.894531 L 485.585938 295.085938 L 482.40625 311.347656 C 478.273438 332.441406 474.003906 342.414062 463.5625 355.441406 C 456.722656 363.929688 453.675781 365.8125 448.324219 364.832031 C 444.613281 364.167969 440.582031 361.78125 439.335938 359.554688 C 433.824219 349.710938 418.53125 361.648438 423.300781 372.074219 C 424.785156 375.363281 426.058594 379.105469 426.136719 380.40625 C 426.21875 381.707031 427.570312 383.5625 429.1875 384.542969 C 433.054688 386.957031 422.480469 396.480469 412.144531 399.878906 C 405.519531 402.054688 404.324219 403.699219 405.015625 409.800781 C 405.464844 413.964844 403.875 419.246094 401.277344 422.109375 Z M 300.03125 117.394531 C 287.175781 129.675781 281.292969 129.863281 273.789062 118.269531 C 268.96875 110.839844 268.621094 108.984375 271.804688 107.761719 C 280.3125 104.5 275.9375 92.800781 260.855469 78.394531 C 242.460938 60.859375 242.222656 54.542969 259.636719 45.761719 C 275.699219 37.671875 316.199219 37.246094 333.292969 45.019531 C 343.363281 49.609375 344.558594 51.121094 344.558594 59.238281 C 344.558594 66.800781 342.542969 69.984375 332.578125 78.183594 C 325.976562 83.566406 318.292969 92.375 315.507812 97.734375 C 312.726562 103.066406 305.753906 111.925781 300.03125 117.394531 Z M 488.875 167.347656 C 487.152344 170.132812 483.996094 170.503906 481.691406 168.195312 C 479.570312 166.074219 414.183594 156.972656 376.363281 153.527344 C 359.613281 151.988281 339.019531 149.972656 330.617188 148.988281 L 315.375 147.238281 L 324.441406 137.050781 L 333.53125 126.863281 L 325.5 118.480469 L 317.496094 110.097656 L 328.390625 109.273438 C 342.835938 108.1875 397.832031 117.65625 419.089844 124.902344 C 451.265625 135.832031 492.742188 161.085938 488.875 167.347656 Z M 125.894531 164.828125 C 118.605469 166.367188 110.550781 168.171875 108.003906 168.859375 C 99.257812 171.273438 103.5 163.234375 116.0625 153.550781 C 144.476562 131.691406 201.355469 112.828125 245.164062 110.734375 C 257.121094 110.148438 258.339844 110.628906 257.515625 115.402344 C 257.011719 118.320312 255.527344 121.105469 254.203125 121.585938 C 249.910156 123.175781 251.632812 130.125 258.523438 139.171875 L 265.230469 147.980469 L 253.886719 149.519531 C 247.628906 150.34375 230.003906 152.171875 214.6875 153.578125 C 177.738281 156.921875 142.195312 161.429688 125.894531 164.828125 Z M 408.167969 294.476562 C 417.445312 303.761719 430.457031 299.730469 433.292969 286.730469 C 434.25 282.433594 433.136719 267.789062 430.855469 254.203125 C 425.609375 223.164062 424.519531 216.375 421.445312 215.3125 C 420.597656 215.019531 419.566406 215.152344 418.265625 215.367188 C 418.160156 215.367188 418.082031 215.390625 417.976562 215.390625 C 413.097656 216.109375 411.746094 219.53125 407.742188 241.417969 C 401.460938 275.71875 401.570312 287.871094 408.167969 294.476562 Z M 408.167969 294.476562 "/>
<path style="stroke:none;fill-rule:nonzero;fill:rgb(93.7%,60%,16.5%);fill-opacity:1;" d="M 300.03125 117.394531 C 305.753906 111.925781 312.726562 103.066406 315.507812 97.734375 C 318.292969 92.375 325.976562 83.566406 332.578125 78.183594 C 333.054688 77.785156 333.503906 77.414062 333.929688 77.042969 C 332.761719 78.207031 331.4375 79.457031 329.980469 80.808594 C 321.152344 89.007812 315.402344 96.59375 315.402344 100.015625 C 315.402344 104.84375 317.3125 105.800781 329.316406 106.886719 C 350.363281 108.796875 393.324219 117.234375 414.15625 123.363281 C 390.332031 116.382812 341.828125 108.265625 328.390625 109.273438 L 317.496094 110.097656 L 325.5 118.480469 L 333.53125 126.863281 L 324.441406 137.050781 L 315.375 147.238281 L 330.617188 148.988281 C 339.019531 149.972656 359.613281 151.988281 376.363281 153.527344 C 379.304688 153.789062 382.40625 154.082031 385.640625 154.425781 C 365.285156 153.101562 341.058594 152.78125 296.847656 152.730469 C 255.769531 152.703125 224.679688 153.367188 198.570312 155.117188 C 203.871094 154.585938 209.277344 154.054688 214.6875 153.578125 C 230.003906 152.171875 247.628906 150.34375 253.886719 149.519531 L 265.230469 147.980469 L 258.523438 139.171875 C 251.632812 130.125 249.910156 123.175781 254.203125 121.585938 C 255.527344 121.105469 257.011719 118.320312 257.515625 115.402344 C 258.339844 110.628906 257.121094 110.148438 245.164062 110.734375 C 243.734375 110.8125 242.277344 110.894531 240.792969 111 C 242.886719 110.523438 244.582031 109.699219 245.164062 108.769531 C 246.066406 107.3125 253.304688 106.117188 261.226562 106.117188 C 274.929688 106.117188 275.644531 105.773438 275.644531 99.324219 C 275.644531 99.0625 275.644531 98.820312 275.621094 98.558594 C 276.890625 103.015625 275.671875 106.277344 271.804688 107.761719 C 268.621094 108.984375 268.96875 110.839844 273.789062 118.269531 C 281.292969 129.863281 287.175781 129.675781 300.03125 117.394531 Z"/>
<path style=" stroke:none;fill-rule:nonzero;fill:rgb(100%,100%,100%);fill-opacity:1;" d="M 300.03125 117.394531 C 305.753906 111.925781 312.726562 103.066406 315.507812 97.734375 C 318.292969 92.375 325.976562 83.566406 332.578125 78.183594 C 333.054688 77.785156 333.503906 77.414062 333.929688 77.042969 C 332.761719 78.207031 331.4375 79.457031 329.980469 80.808594 C 321.152344 89.007812 315.402344 96.59375 315.402344 100.015625 C 315.402344 104.84375 317.3125 105.800781 329.316406 106.886719 C 350.363281 108.796875 393.324219 117.234375 414.15625 123.363281 C 390.332031 116.382812 341.828125 108.265625 328.390625 109.273438 L 317.496094 110.097656 L 325.5 118.480469 L 333.53125 126.863281 L 324.441406 137.050781 L 315.375 147.238281 L 330.617188 148.988281 C 339.019531 149.972656 359.613281 151.988281 376.363281 153.527344 C 379.304688 153.789062 382.40625 154.082031 385.640625 154.425781 C 365.285156 153.101562 341.058594 152.78125 296.847656 152.730469 C 255.769531 152.703125 224.679688 153.367188 198.570312 155.117188 C 203.871094 154.585938 209.277344 154.054688 214.6875 153.578125 C 230.003906 152.171875 247.628906 150.34375 253.886719 149.519531 L 265.230469 147.980469 L 258.523438 139.171875 C 251.632812 130.125 249.910156 123.175781 254.203125 121.585938 C 255.527344 121.105469 257.011719 118.320312 257.515625 115.402344 C 258.339844 110.628906 257.121094 110.148438 245.164062 110.734375 C 243.734375 110.8125 242.277344 110.894531 240.792969 111 C 242.886719 110.523438 244.582031 109.699219 245.164062 108.769531 C 246.066406 107.3125 253.304688 106.117188 261.226562 106.117188 C 274.929688 106.117188 275.644531 105.773438 275.644531 99.324219 C 275.644531 99.0625 275.644531 98.820312 275.621094 98.558594 C 276.890625 103.015625 275.671875 106.277344 271.804688 107.761719 C 268.621094 108.984375 268.96875 110.839844 273.789062 118.269531 C 281.292969 129.863281 287.175781 129.675781 300.03125 117.394531 Z M 178.402344 399.136719 C 167.402344 394.890625 147.230469 382.34375 139.464844 374.277344 C 124.464844 358.675781 112.21875 332.203125 107.632812 305.511719 C 110.390625 321.269531 119.109375 345.863281 124.464844 352.816406 L 129.527344 359.394531 L 136.285156 353.027344 C 143.019531 346.710938 143.125 346.710938 149.035156 351.753906 C 157.355469 358.808594 164.328125 366.582031 164.328125 368.757812 C 164.328125 369.765625 161.941406 372.738281 159.027344 375.390625 C 156.109375 378.042969 153.726562 381.226562 153.726562 382.5 C 153.726562 385.234375 169.390625 395.316406 178.402344 399.136719 Z M 419.351562 396.589844 C 426.695312 392.371094 432.15625 386.402344 429.1875 384.542969 C 427.570312 383.5625 426.21875 381.707031 426.136719 380.40625 C 426.058594 379.105469 424.785156 375.363281 423.300781 372.074219 C 418.53125 361.648438 433.824219 349.710938 439.335938 359.554688 C 440.582031 361.78125 444.613281 364.167969 448.324219 364.832031 C 453.675781 365.8125 456.722656 363.929688 463.5625 355.441406 C 467.351562 350.691406 470.347656 346.367188 472.8125 341.75 C 461.523438 366.027344 442.757812 385.445312 419.351562 396.589844 Z M 192.847656 119.355469 C 174.636719 124.210938 156.746094 130.738281 141.535156 138.191406 C 152.746094 132.566406 165.121094 127.367188 176.253906 123.839844 C 180.679688 122.433594 186.511719 120.894531 192.847656 119.355469 Z M 477.132812 154.164062 C 463.296875 144.375 439.839844 132.0625 419.832031 125.140625 C 439.550781 131.957031 463.535156 144.160156 477.132812 154.164062 Z M 401.4375 421.921875 C 401.410156 421.949219 401.382812 422.003906 401.355469 422.03125 C 403.160156 419.988281 404.484375 416.722656 404.933594 413.515625 C 404.933594 416.617188 403.792969 419.324219 401.4375 421.921875 Z M 473.660156 166.207031 C 478.351562 167.082031 481.265625 167.796875 481.691406 168.195312 C 481.71875 168.222656 481.746094 168.25 481.746094 168.277344 C 480.710938 168.0625 479.542969 167.71875 478.246094 167.292969 C 477.398438 167.027344 475.832031 166.65625 473.660156 166.207031 Z M 397.859375 424.445312 C 391.230469 426.992188 372.652344 427.125 295.65625 427.125 C 372.359375 427.125 391.207031 426.964844 397.859375 424.445312 Z M 480.632812 319.652344 C 481.242188 317.078125 481.824219 314.347656 482.40625 311.347656 L 483.359375 306.519531 L 482.328125 311.960938 C 481.851562 314.558594 481.265625 317.132812 480.632812 319.652344 Z M 186.511719 401.628906 C 187.785156 402.929688 188.179688 405.632812 188.179688 410.675781 C 188.179688 405.820312 187.703125 402.980469 186.511719 401.628906 Z M 344.558594 58.894531 C 344.53125 56.058594 344.371094 54.066406 343.683594 52.421875 C 344.371094 54.039062 344.558594 55.976562 344.558594 58.683594 C 344.558594 58.761719 344.558594 58.816406 344.558594 58.894531 Z M 234.457031 111.554688 C 232.972656 111.6875 231.4375 111.875 229.925781 112.058594 C 231.648438 111.820312 233.1875 111.664062 234.457031 111.554688 Z M 234.457031 111.554688 "/>
<path style=" stroke:none;fill-rule:nonzero;fill:rgb(100%,100%,100%);fill-opacity:1;" d="M 401.4375 421.921875 C 404.667969 418.367188 405.597656 414.574219 404.457031 409.933594 C 403.027344 404.230469 403.902344 402.742188 410.101562 400.488281 C 447.183594 386.957031 474.507812 353.476562 482.328125 311.960938 L 485.507812 295.085938 L 499.183594 293.917969 C 518.425781 292.246094 540.957031 280.628906 560.648438 262.191406 C 580.050781 244.015625 585.457031 232.476562 579.941406 220.9375 C 577.027344 214.808594 574.484375 213.429688 564.996094 212.738281 C 554.074219 211.945312 552.722656 212.710938 534.039062 230.488281 C 514.6875 248.871094 501.992188 255.054688 491.683594 251.074219 C 485.933594 248.871094 485.933594 213.480469 491.65625 211.28125 C 497.804688 208.917969 496.375 204.4375 488.53125 201.4375 C 475.886719 196.636719 429.105469 188.652344 387.335938 184.195312 C 336.738281 178.78125 227.25 180.160156 180.230469 186.792969 C 135.648438 193.082031 108.21875 198.890625 100.929688 203.535156 C 95.070312 207.300781 94.886719 207.9375 98.941406 210.910156 C 102.359375 213.402344 103.367188 218.441406 103.367188 233.085938 L 103.367188 252.03125 L 95.285156 252.03125 C 83.675781 252.03125 72.515625 245.449219 53.9375 227.570312 C 39.171875 213.375 36.65625 211.96875 27.695312 212.710938 C 13.277344 213.933594 6.175781 223.988281 10.496094 237.09375 C 17.464844 258.265625 64.140625 290.894531 91.464844 293.707031 C 105.648438 295.191406 105.9375 295.378906 107.5 304.796875 C 112.007812 331.722656 124.332031 358.546875 139.464844 374.277344 C 148.953125 384.121094 176.863281 400.59375 184.046875 400.59375 C 187.066406 400.59375 188.179688 403.328125 188.179688 410.675781 C 188.179688 416.21875 189.613281 422.1875 191.363281 423.941406 C 193.722656 426.300781 220.542969 427.125 295.65625 427.125 C 392.691406 427.125 396.929688 426.910156 401.4375 421.921875 Z M 125.894531 164.800781 C 169.546875 155.648438 211.796875 152.648438 296.847656 152.730469 C 371.113281 152.808594 389.03125 153.632812 426.722656 158.777344 C 450.761719 162.066406 473.953125 165.886719 478.246094 167.292969 C 490.597656 171.351562 491.84375 166.101562 480.683594 156.894531 C 467.910156 146.363281 440.820312 132.277344 419.140625 124.925781 C 401.117188 118.796875 352.21875 108.984375 329.316406 106.886719 C 317.3125 105.800781 315.402344 104.84375 315.402344 100.015625 C 315.402344 96.59375 321.152344 89.007812 329.980469 80.808594 C 341.828125 69.773438 344.558594 65.632812 344.558594 58.683594 C 344.558594 51.203125 343.152344 49.503906 333.292969 45.019531 C 316.199219 37.246094 275.699219 37.671875 259.636719 45.761719 C 242.222656 54.542969 242.460938 60.859375 260.855469 78.394531 C 271.300781 88.371094 275.644531 94.496094 275.644531 99.324219 C 275.644531 105.773438 274.929688 106.117188 261.226562 106.117188 C 253.304688 106.117188 246.066406 107.3125 245.164062 108.769531 C 244.265625 110.230469 240.554688 111.421875 236.949219 111.421875 C 228.015625 111.421875 192.527344 118.691406 176.253906 123.839844 C 155.15625 130.523438 129.582031 143.152344 116.0625 153.550781 C 103.5 163.234375 99.257812 171.273438 108.003906 168.859375 C 110.550781 168.171875 118.605469 166.339844 125.894531 164.800781 Z M 408.167969 294.476562 C 401.570312 287.871094 401.460938 275.71875 407.742188 241.417969 C 411.746094 219.53125 413.097656 216.109375 417.976562 215.390625 C 424.230469 214.492188 424.042969 213.855469 430.855469 254.203125 C 433.136719 267.789062 434.25 282.433594 433.292969 286.730469 C 430.457031 299.730469 417.445312 303.761719 408.167969 294.476562 Z M 408.167969 294.476562 "/>
</g>
</svg>
